<svg xmlns="http://www.w3.org/2000/svg" width="40" height="40" viewBox="0 0 40 40">
    <g fill="none" fill-rule="evenodd">
        <path fill="none" d="M0 0h40v40H0z"/>
        <path fill="#FFF" fill-rule="nonzero" d="M18.615 7.578c1.036-.165 2.362-.175 2.87-.029.907.263 1.226 1.032.708 1.704-.32.41-.768.633-1.944.965-2.183.603-3.777 1.48-5.133 2.814-.996.964-1.545 1.88-1.704 2.824-.05.263-.05 3.555 0 7.305.06 4.704.05 6.905-.02 7.08-.17.438-.488.35-1.375-.341-2.502-1.987-4.127-4.597-4.784-7.713-.22-1.072-.22-3.448.01-4.422.647-2.834 2.312-5.493 4.524-7.226 2.044-1.607 4.236-2.552 6.848-2.96zm8.382 2.367c.1-.098.229-.175.299-.175.209 0 1.076.72 1.883 1.587 2.9 3.097 3.937 6.155 3.38 9.934-.33 2.25-.888 3.925-1.845 5.6-.558.954-2.083 2.464-3.329 3.291-1.634 1.091-3.707 1.987-5.372 2.318-.857.176-2.372.205-2.66.059-.25-.137-.25-.546.01-.945.248-.4.328-.438 1.743-.799 1.655-.418 2.293-.74 3.04-1.548 1.097-1.159 2.273-3.107 2.641-4.344.16-.516.16-1.13.09-7.353-.05-3.73-.08-6.924-.07-7.109.02-.185.1-.409.19-.516zm-7.306 1.198c.23-.146.488-.205.917-.205.777 0 1.186.234 1.475.857.24.536.24.546.359 8.298.04 2.756.11 5.093.16 5.19.099.234.597.468.817.39.299-.107 1.245-.954 1.873-1.675.33-.38.648-.691.718-.691.23 0 .15.72-.18 1.626-.428 1.198-1.096 2.415-1.714 3.156-1.236 1.46-3.388 2.259-4.355 1.616-.758-.487-.827-.886-1.007-5.444-.12-3.194-.05-9.778.11-11.268.11-.954.388-1.578.827-1.85zm-4.694 8.716c1.385-.682 3.01.049 3.368 1.5.21.847-.08 1.665-.797 2.26-.708.603-1.605.72-2.442.33-.269-.126-.618-.35-.767-.506-1.047-1.09-.718-2.922.638-3.584zM20 36c-8.837 0-16-7.163-16-16S11.163 4 20 4s16 7.163 16 16-7.163 16-16 16zm0-1.6c7.953 0 14.4-6.447 14.4-14.4S27.953 5.6 20 5.6 5.6 12.047 5.6 20 12.047 34.4 20 34.4z"/>
    </g>
</svg>
